<?xml version="1.0" encoding="utf-8"?>
<!-- Created with the Vernier library -->
<svg
    xmlns="http://www.w3.org/2000/svg"
    version="1.1"
    x="0" y="0" width="1724450" height="1724450"
    viewBox="0 0 1724450 1724450">
<title>Example of 12-bits megarena pattern</title>
<desc>
    class: MegarenaPattern
    description: Example of 12-bits megarena pattern
    date: 2022
    author: FEMTO-ST
    unit: µm
    width: 1724450
    height: 1724450
    originX: 35
    originY: 35
    leftMargin: 0
    rightMargin: 0
    topMargin: 0
    bottomMargin: 0
</desc>
<rect x="980" y="980" width="70" height="70" fill="black" />
<rect x="980" y="1120" width="70" height="70" fill="black" />
<rect x="980" y="1260" width="70" height="70" fill="black" />
<rect x="980" y="1400" width="70" height="70" fill="black" />
<rect x="980" y="1540" width="70" height="70" fill="black" />
<rect x="980" y="1680" width="70" height="70" fill="black" />
<rect x="980" y="1820" width="70" height="70" fill="black" />
<rect x="980" y="1960" width="70" height="70" fill="black" />
<rect x="980" y="2100" width="70" height="70" fill="black" />
<rect x="980" y="2240" width="70" height="70" fill="black" />
<rect x="980" y="2380" width="70" height="70" fill="black" />
<rect x="980" y="2520" width="70" height="70" fill="black" />
<rect x="980" y="2660" width="70" height="70" fill="black" />
<rect x="980" y="2800" width="70" height="70" fill="black" />
<rect x="1120" y="980" width="70" height="70" fill="black" />
<rect x="1120" y="1120" width="70" height="70" fill="black" />
<rect x="1120" y="1260" width="70" height="70" fill="black" />
<rect x="1120" y="1400" width="70" height="70" fill="black" />
<rect x="1120" y="1540" width="70" height="70" fill="black" />
<rect x="1120" y="1680" width="70" height="70" fill="black" />
<rect x="1120" y="1820" width="70" height="70" fill="black" />
<rect x="1120" y="1960" width="70" height="70" fill="black" />
<rect x="1120" y="2100" width="70" height="70" fill="black" />
<rect x="1120" y="2240" width="70" height="70" fill="black" />
<rect x="1120" y="2380" width="70" height="70" fill="black" />
<rect x="1120" y="2520" width="70" height="70" fill="black" />
<rect x="1120" y="2660" width="70" height="70" fill="black" />
<rect x="1120" y="2800" width="70" height="70" fill="black" />
<rect x="1260" y="980" width="70" height="70" fill="black" />
<rect x="1260" y="1120" width="70" height="70" fill="black" />
<rect x="1260" y="1400" width="70" height="70" fill="black" />
<rect x="1260" y="1540" width="70" height="70" fill="black" />
<rect x="1260" y="1820" width="70" height="70" fill="black" />
<rect x="1260" y="1960" width="70" height="70" fill="black" />
<rect x="1260" y="2240" width="70" height="70" fill="black" />
<rect x="1260" y="2380" width="70" height="70" fill="black" />
<rect x="1260" y="2660" width="70" height="70" fill="black" />
<rect x="1260" y="2800" width="70" height="70" fill="black" />
<rect x="1400" y="980" width="70" height="70" fill="black" />
<rect x="1400" y="1120" width="70" height="70" fill="black" />
<rect x="1400" y="1260" width="70" height="70" fill="black" />
<rect x="1400" y="1400" width="70" height="70" fill="black" />
<rect x="1400" y="1540" width="70" height="70" fill="black" />
<rect x="1400" y="1680" width="70" height="70" fill="black" />
<rect x="1400" y="1820" width="70" height="70" fill="black" />
<rect x="1400" y="1960" width="70" height="70" fill="black" />
<rect x="1400" y="2100" width="70" height="70" fill="black" />
<rect x="1400" y="2240" width="70" height="70" fill="black" />
<rect x="1400" y="2380" width="70" height="70" fill="black" />
<rect x="1400" y="2520" width="70" height="70" fill="black" />
<rect x="1400" y="2660" width="70" height="70" fill="black" />
<rect x="1400" y="2800" width="70" height="70" fill="black" />
<rect x="1540" y="980" width="70" height="70" fill="black" />
<rect x="1540" y="1120" width="70" height="70" fill="black" />
<rect x="1540" y="1260" width="70" height="70" fill="black" />
<rect x="1540" y="1400" width="70" height="70" fill="black" />
<rect x="1540" y="1540" width="70" height="70" fill="black" />
<rect x="1540" y="1680" width="70" height="70" fill="black" />
<rect x="1540" y="1820" width="70" height="70" fill="black" />
<rect x="1540" y="1960" width="70" height="70" fill="black" />
<rect x="1540" y="2100" width="70" height="70" fill="black" />
<rect x="1540" y="2240" width="70" height="70" fill="black" />
<rect x="1540" y="2380" width="70" height="70" fill="black" />
<rect x="1540" y="2520" width="70" height="70" fill="black" />
<rect x="1540" y="2660" width="70" height="70" fill="black" />
<rect x="1540" y="2800" width="70" height="70" fill="black" />
<rect x="1680" y="980" width="70" height="70" fill="black" />
<rect x="1680" y="1120" width="70" height="70" fill="black" />
<rect x="1680" y="1400" width="70" height="70" fill="black" />
<rect x="1680" y="1540" width="70" height="70" fill="black" />
<rect x="1680" y="1820" width="70" height="70" fill="black" />
<rect x="1680" y="1960" width="70" height="70" fill="black" />
<rect x="1680" y="2240" width="70" height="70" fill="black" />
<rect x="1680" y="2380" width="70" height="70" fill="black" />
<rect x="1680" y="2660" width="70" height="70" fill="black" />
<rect x="1680" y="2800" width="70" height="70" fill="black" />
<rect x="1820" y="980" width="70" height="70" fill="black" />
<rect x="1820" y="1120" width="70" height="70" fill="black" />
<rect x="1820" y="1260" width="70" height="70" fill="black" />
<rect x="1820" y="1400" width="70" height="70" fill="black" />
<rect x="1820" y="1540" width="70" height="70" fill="black" />
<rect x="1820" y="1680" width="70" height="70" fill="black" />
<rect x="1820" y="1820" width="70" height="70" fill="black" />
<rect x="1820" y="1960" width="70" height="70" fill="black" />
<rect x="1820" y="2100" width="70" height="70" fill="black" />
<rect x="1820" y="2240" width="70" height="70" fill="black" />
<rect x="1820" y="2380" width="70" height="70" fill="black" />
<rect x="1820" y="2520" width="70" height="70" fill="black" />
<rect x="1820" y="2660" width="70" height="70" fill="black" />
<rect x="1820" y="2800" width="70" height="70" fill="black" />
<rect x="1960" y="980" width="70" height="70" fill="black" />
<rect x="1960" y="1120" width="70" height="70" fill="black" />
<rect x="1960" y="1260" width="70" height="70" fill="black" />
<rect x="1960" y="1400" width="70" height="70" fill="black" />
<rect x="1960" y="1540" width="70" height="70" fill="black" />
<rect x="1960" y="1680" width="70" height="70" fill="black" />
<rect x="1960" y="1820" width="70" height="70" fill="black" />
<rect x="1960" y="1960" width="70" height="70" fill="black" />
<rect x="1960" y="2100" width="70" height="70" fill="black" />
<rect x="1960" y="2240" width="70" height="70" fill="black" />
<rect x="1960" y="2380" width="70" height="70" fill="black" />
<rect x="1960" y="2520" width="70" height="70" fill="black" />
<rect x="1960" y="2660" width="70" height="70" fill="black" />
<rect x="1960" y="2800" width="70" height="70" fill="black" />
<rect x="2100" y="980" width="70" height="70" fill="black" />
<rect x="2100" y="1120" width="70" height="70" fill="black" />
<rect x="2100" y="1400" width="70" height="70" fill="black" />
<rect x="2100" y="1540" width="70" height="70" fill="black" />
<rect x="2100" y="1820" width="70" height="70" fill="black" />
<rect x="2100" y="1960" width="70" height="70" fill="black" />
<rect x="2100" y="2240" width="70" height="70" fill="black" />
<rect x="2100" y="2380" width="70" height="70" fill="black" />
<rect x="2100" y="2660" width="70" height="70" fill="black" />
<rect x="2100" y="2800" width="70" height="70" fill="black" />
<rect x="2240" y="980" width="70" height="70" fill="black" />
<rect x="2240" y="1120" width="70" height="70" fill="black" />
<rect x="2240" y="1260" width="70" height="70" fill="black" />
<rect x="2240" y="1400" width="70" height="70" fill="black" />
<rect x="2240" y="1540" width="70" height="70" fill="black" />
<rect x="2240" y="1680" width="70" height="70" fill="black" />
<rect x="2240" y="1820" width="70" height="70" fill="black" />
<rect x="2240" y="1960" width="70" height="70" fill="black" />
<rect x="2240" y="2100" width="70" height="70" fill="black" />
<rect x="2240" y="2240" width="70" height="70" fill="black" />
<rect x="2240" y="2380" width="70" height="70" fill="black" />
<rect x="2240" y="2520" width="70" height="70" fill="black" />
<rect x="2240" y="2660" width="70" height="70" fill="black" />
<rect x="2240" y="2800" width="70" height="70" fill="black" />
<rect x="2380" y="980" width="70" height="70" fill="black" />
<rect x="2380" y="1120" width="70" height="70" fill="black" />
<rect x="2380" y="1260" width="70" height="70" fill="black" />
<rect x="2380" y="1400" width="70" height="70" fill="black" />
<rect x="2380" y="1540" width="70" height="70" fill="black" />
<rect x="2380" y="1680" width="70" height="70" fill="black" />
<rect x="2380" y="1820" width="70" height="70" fill="black" />
<rect x="2380" y="1960" width="70" height="70" fill="black" />
<rect x="2380" y="2100" width="70" height="70" fill="black" />
<rect x="2380" y="2240" width="70" height="70" fill="black" />
<rect x="2380" y="2380" width="70" height="70" fill="black" />
<rect x="2380" y="2520" width="70" height="70" fill="black" />
<rect x="2380" y="2660" width="70" height="70" fill="black" />
<rect x="2380" y="2800" width="70" height="70" fill="black" />
<rect x="2520" y="980" width="70" height="70" fill="black" />
<rect x="2520" y="1120" width="70" height="70" fill="black" />
<rect x="2520" y="1400" width="70" height="70" fill="black" />
<rect x="2520" y="1540" width="70" height="70" fill="black" />
<rect x="2520" y="1820" width="70" height="70" fill="black" />
<rect x="2520" y="1960" width="70" height="70" fill="black" />
<rect x="2520" y="2240" width="70" height="70" fill="black" />
<rect x="2520" y="2380" width="70" height="70" fill="black" />
<rect x="2520" y="2660" width="70" height="70" fill="black" />
<rect x="2520" y="2800" width="70" height="70" fill="black" />
<rect x="2660" y="980" width="70" height="70" fill="black" />
<rect x="2660" y="1120" width="70" height="70" fill="black" />
<rect x="2660" y="1260" width="70" height="70" fill="black" />
<rect x="2660" y="1400" width="70" height="70" fill="black" />
<rect x="2660" y="1540" width="70" height="70" fill="black" />
<rect x="2660" y="1680" width="70" height="70" fill="black" />
<rect x="2660" y="1820" width="70" height="70" fill="black" />
<rect x="2660" y="1960" width="70" height="70" fill="black" />
<rect x="2660" y="2100" width="70" height="70" fill="black" />
<rect x="2660" y="2240" width="70" height="70" fill="black" />
<rect x="2660" y="2380" width="70" height="70" fill="black" />
<rect x="2660" y="2520" width="70" height="70" fill="black" />
<rect x="2660" y="2660" width="70" height="70" fill="black" />
<rect x="2660" y="2800" width="70" height="70" fill="black" />
<rect x="2800" y="980" width="70" height="70" fill="black" />
<rect x="2800" y="1120" width="70" height="70" fill="black" />
<rect x="2800" y="1260" width="70" height="70" fill="black" />
<rect x="2800" y="1400" width="70" height="70" fill="black" />
<rect x="2800" y="1540" width="70" height="70" fill="black" />
<rect x="2800" y="1680" width="70" height="70" fill="black" />
<rect x="2800" y="1820" width="70" height="70" fill="black" />
<rect x="2800" y="1960" width="70" height="70" fill="black" />
<rect x="2800" y="2100" width="70" height="70" fill="black" />
<rect x="2800" y="2240" width="70" height="70" fill="black" />
<rect x="2800" y="2380" width="70" height="70" fill="black" />
<rect x="2800" y="2520" width="70" height="70" fill="black" />
<rect x="2800" y="2660" width="70" height="70" fill="black" />
<rect x="2800" y="2800" width="70" height="70" fill="black" />
<rect x="2940" y="980" width="70" height="70" fill="black" />
<rect x="2940" y="1120" width="70" height="70" fill="black" />
<rect x="2940" y="1400" width="70" height="70" fill="black" />
<rect x="2940" y="1540" width="70" height="70" fill="black" />
<rect x="2940" y="1820" width="70" height="70" fill="black" />
<rect x="2940" y="1960" width="70" height="70" fill="black" />
<rect x="2940" y="2240" width="70" height="70" fill="black" />
<rect x="2940" y="2380" width="70" height="70" fill="black" />
<rect x="2940" y="2660" width="70" height="70" fill="black" />
<rect x="2940" y="2800" width="70" height="70" fill="black" />
<rect x="3080" y="980" width="70" height="70" fill="black" />
<rect x="3080" y="1120" width="70" height="70" fill="black" />
<rect x="3080" y="1260" width="70" height="70" fill="black" />
<rect x="3080" y="1400" width="70" height="70" fill="black" />
<rect x="3080" y="1540" width="70" height="70" fill="black" />
<rect x="3080" y="1680" width="70" height="70" fill="black" />
<rect x="3080" y="1820" width="70" height="70" fill="black" />
<rect x="3080" y="1960" width="70" height="70" fill="black" />
<rect x="3080" y="2100" width="70" height="70" fill="black" />
<rect x="3080" y="2240" width="70" height="70" fill="black" />
<rect x="3080" y="2380" width="70" height="70" fill="black" />
<rect x="3080" y="2520" width="70" height="70" fill="black" />
<rect x="3080" y="2660" width="70" height="70" fill="black" />
<rect x="3080" y="2800" width="70" height="70" fill="black" />
<rect x="3220" y="980" width="70" height="70" fill="black" />
<rect x="3220" y="1120" width="70" height="70" fill="black" />
<rect x="3220" y="1260" width="70" height="70" fill="black" />
<rect x="3220" y="1400" width="70" height="70" fill="black" />
<rect x="3220" y="1540" width="70" height="70" fill="black" />
<rect x="3220" y="1680" width="70" height="70" fill="black" />
<rect x="3220" y="1820" width="70" height="70" fill="black" />
<rect x="3220" y="1960" width="70" height="70" fill="black" />
<rect x="3220" y="2100" width="70" height="70" fill="black" />
<rect x="3220" y="2240" width="70" height="70" fill="black" />
<rect x="3220" y="2380" width="70" height="70" fill="black" />
<rect x="3220" y="2520" width="70" height="70" fill="black" />
<rect x="3220" y="2660" width="70" height="70" fill="black" />
<rect x="3220" y="2800" width="70" height="70" fill="black" />
<rect x="3360" y="980" width="70" height="70" fill="black" />
<rect x="3360" y="1120" width="70" height="70" fill="black" />
<rect x="3360" y="1400" width="70" height="70" fill="black" />
<rect x="3360" y="1540" width="70" height="70" fill="black" />
<rect x="3360" y="1820" width="70" height="70" fill="black" />
<rect x="3360" y="1960" width="70" height="70" fill="black" />
<rect x="3360" y="2240" width="70" height="70" fill="black" />
<rect x="3360" y="2380" width="70" height="70" fill="black" />
<rect x="3360" y="2660" width="70" height="70" fill="black" />
<rect x="3360" y="2800" width="70" height="70" fill="black" />
<rect x="3500" y="980" width="70" height="70" fill="black" />
<rect x="3500" y="1120" width="70" height="70" fill="black" />
<rect x="3500" y="1260" width="70" height="70" fill="black" />
<rect x="3500" y="1400" width="70" height="70" fill="black" />
<rect x="3500" y="1540" width="70" height="70" fill="black" />
<rect x="3500" y="1680" width="70" height="70" fill="black" />
<rect x="3500" y="1820" width="70" height="70" fill="black" />
<rect x="3500" y="1960" width="70" height="70" fill="black" />
<rect x="3500" y="2100" width="70" height="70" fill="black" />
<rect x="3500" y="2240" width="70" height="70" fill="black" />
<rect x="3500" y="2380" width="70" height="70" fill="black" />
<rect x="3500" y="2520" width="70" height="70" fill="black" />
<rect x="3500" y="2660" width="70" height="70" fill="black" />
<rect x="3500" y="2800" width="70" height="70" fill="black" />
<rect x="3640" y="980" width="70" height="70" fill="black" />
<rect x="3640" y="1120" width="70" height="70" fill="black" />
<rect x="3640" y="1260" width="70" height="70" fill="black" />
<rect x="3640" y="1400" width="70" height="70" fill="black" />
<rect x="3640" y="1540" width="70" height="70" fill="black" />
<rect x="3640" y="1680" width="70" height="70" fill="black" />
<rect x="3640" y="1820" width="70" height="70" fill="black" />
<rect x="3640" y="1960" width="70" height="70" fill="black" />
<rect x="3640" y="2100" width="70" height="70" fill="black" />
<rect x="3640" y="2240" width="70" height="70" fill="black" />
<rect x="3640" y="2380" width="70" height="70" fill="black" />
<rect x="3640" y="2520" width="70" height="70" fill="black" />
<rect x="3640" y="2660" width="70" height="70" fill="black" />
<rect x="3640" y="2800" width="70" height="70" fill="black" />
<rect x="3780" y="980" width="70" height="70" fill="black" />
<rect x="3780" y="1120" width="70" height="70" fill="black" />
<rect x="3780" y="1400" width="70" height="70" fill="black" />
<rect x="3780" y="1540" width="70" height="70" fill="black" />
<rect x="3780" y="1820" width="70" height="70" fill="black" />
<rect x="3780" y="1960" width="70" height="70" fill="black" />
<rect x="3780" y="2240" width="70" height="70" fill="black" />
<rect x="3780" y="2380" width="70" height="70" fill="black" />
<rect x="3780" y="2660" width="70" height="70" fill="black" />
<rect x="3780" y="2800" width="70" height="70" fill="black" />
</svg>
