<?xml version="1.0" encoding="utf-8"?>
<!-- Created with Vernier library -->
<svg
    xmlns="http://www.w3.org/2000/svg"
    version="1.1"
    x="0" y="0" width="798" height="798"
    viewBox="0 0 798 798">
<title>QR-code pattern example</title>
<desc>
    class: QRCodePattern
    description: QR-code pattern example
    date: 2022
    author: FEMTO-ST
    unit: micrometer
    width: 798
    height: 798
    originX: 399
    originY: 399
    margin: 0
</desc>
<rect x="0" y="0" width="21" height="21" fill="black" />
<rect x="0" y="42" width="21" height="21" fill="black" />
<rect x="0" y="84" width="21" height="21" fill="black" />
<rect x="0" y="126" width="21" height="21" fill="black" />
<rect x="0" y="168" width="21" height="21" fill="black" />
<rect x="0" y="210" width="21" height="21" fill="black" />
<rect x="0" y="252" width="21" height="21" fill="black" />
<rect x="0" y="294" width="21" height="21" fill="black" />
<rect x="0" y="336" width="21" height="21" fill="black" />
<rect x="0" y="378" width="21" height="21" fill="black" />
<rect x="0" y="420" width="21" height="21" fill="black" />
<rect x="0" y="462" width="21" height="21" fill="black" />
<rect x="0" y="504" width="21" height="21" fill="black" />
<rect x="0" y="546" width="21" height="21" fill="black" />
<rect x="0" y="588" width="21" height="21" fill="black" />
<rect x="0" y="630" width="21" height="21" fill="black" />
<rect x="0" y="672" width="21" height="21" fill="black" />
<rect x="0" y="714" width="21" height="21" fill="black" />
<rect x="0" y="756" width="21" height="21" fill="black" />
<rect x="42" y="0" width="21" height="21" fill="black" />
<rect x="42" y="42" width="21" height="21" fill="black" />
<rect x="42" y="84" width="21" height="21" fill="black" />
<rect x="42" y="126" width="21" height="21" fill="black" />
<rect x="42" y="168" width="21" height="21" fill="black" />
<rect x="42" y="210" width="21" height="21" fill="black" />
<rect x="42" y="252" width="21" height="21" fill="black" />
<rect x="42" y="294" width="21" height="21" fill="black" />
<rect x="42" y="336" width="21" height="21" fill="black" />
<rect x="42" y="378" width="21" height="21" fill="black" />
<rect x="42" y="420" width="21" height="21" fill="black" />
<rect x="42" y="462" width="21" height="21" fill="black" />
<rect x="42" y="504" width="21" height="21" fill="black" />
<rect x="42" y="546" width="21" height="21" fill="black" />
<rect x="42" y="588" width="21" height="21" fill="black" />
<rect x="42" y="630" width="21" height="21" fill="black" />
<rect x="42" y="672" width="21" height="21" fill="black" />
<rect x="42" y="714" width="21" height="21" fill="black" />
<rect x="42" y="756" width="21" height="21" fill="black" />
<rect x="84" y="0" width="21" height="21" fill="black" />
<rect x="84" y="42" width="21" height="21" fill="black" />
<rect x="84" y="84" width="21" height="21" fill="black" />
<rect x="84" y="126" width="21" height="21" fill="black" />
<rect x="84" y="168" width="21" height="21" fill="black" />
<rect x="84" y="210" width="21" height="21" fill="black" />
<rect x="84" y="252" width="21" height="21" fill="black" />
<rect x="84" y="294" width="21" height="21" fill="black" />
<rect x="84" y="336" width="21" height="21" fill="black" />
<rect x="84" y="378" width="21" height="21" fill="black" />
<rect x="84" y="420" width="21" height="21" fill="black" />
<rect x="84" y="462" width="21" height="21" fill="black" />
<rect x="84" y="504" width="21" height="21" fill="black" />
<rect x="84" y="546" width="21" height="21" fill="black" />
<rect x="84" y="588" width="21" height="21" fill="black" />
<rect x="84" y="630" width="21" height="21" fill="black" />
<rect x="84" y="672" width="21" height="21" fill="black" />
<rect x="84" y="714" width="21" height="21" fill="black" />
<rect x="84" y="756" width="21" height="21" fill="black" />
<rect x="126" y="0" width="21" height="21" fill="black" />
<rect x="126" y="42" width="21" height="21" fill="black" />
<rect x="126" y="84" width="21" height="21" fill="black" />
<rect x="126" y="126" width="21" height="21" fill="black" />
<rect x="126" y="168" width="21" height="21" fill="black" />
<rect x="126" y="210" width="21" height="21" fill="black" />
<rect x="126" y="252" width="21" height="21" fill="black" />
<rect x="126" y="294" width="21" height="21" fill="black" />
<rect x="126" y="336" width="21" height="21" fill="black" />
<rect x="126" y="378" width="21" height="21" fill="black" />
<rect x="126" y="420" width="21" height="21" fill="black" />
<rect x="126" y="462" width="21" height="21" fill="black" />
<rect x="126" y="504" width="21" height="21" fill="black" />
<rect x="126" y="546" width="21" height="21" fill="black" />
<rect x="126" y="588" width="21" height="21" fill="black" />
<rect x="126" y="630" width="21" height="21" fill="black" />
<rect x="126" y="672" width="21" height="21" fill="black" />
<rect x="126" y="714" width="21" height="21" fill="black" />
<rect x="126" y="756" width="21" height="21" fill="black" />
<rect x="168" y="0" width="21" height="21" fill="black" />
<rect x="168" y="42" width="21" height="21" fill="black" />
<rect x="168" y="84" width="21" height="21" fill="black" />
<rect x="168" y="126" width="21" height="21" fill="black" />
<rect x="168" y="168" width="21" height="21" fill="black" />
<rect x="168" y="210" width="21" height="21" fill="black" />
<rect x="168" y="252" width="21" height="21" fill="black" />
<rect x="168" y="294" width="21" height="21" fill="black" />
<rect x="168" y="336" width="21" height="21" fill="black" />
<rect x="168" y="378" width="21" height="21" fill="black" />
<rect x="168" y="420" width="21" height="21" fill="black" />
<rect x="168" y="462" width="21" height="21" fill="black" />
<rect x="168" y="504" width="21" height="21" fill="black" />
<rect x="168" y="546" width="21" height="21" fill="black" />
<rect x="168" y="588" width="21" height="21" fill="black" />
<rect x="168" y="630" width="21" height="21" fill="black" />
<rect x="168" y="672" width="21" height="21" fill="black" />
<rect x="168" y="714" width="21" height="21" fill="black" />
<rect x="168" y="756" width="21" height="21" fill="black" />
<rect x="210" y="0" width="21" height="21" fill="black" />
<rect x="210" y="42" width="21" height="21" fill="black" />
<rect x="210" y="84" width="21" height="21" fill="black" />
<rect x="210" y="126" width="21" height="21" fill="black" />
<rect x="210" y="168" width="21" height="21" fill="black" />
<rect x="210" y="210" width="21" height="21" fill="black" />
<rect x="210" y="252" width="21" height="21" fill="black" />
<rect x="210" y="294" width="21" height="21" fill="black" />
<rect x="210" y="336" width="21" height="21" fill="black" />
<rect x="210" y="378" width="21" height="21" fill="black" />
<rect x="210" y="420" width="21" height="21" fill="black" />
<rect x="210" y="462" width="21" height="21" fill="black" />
<rect x="210" y="504" width="21" height="21" fill="black" />
<rect x="210" y="546" width="21" height="21" fill="black" />
<rect x="210" y="588" width="21" height="21" fill="black" />
<rect x="210" y="630" width="21" height="21" fill="black" />
<rect x="210" y="672" width="21" height="21" fill="black" />
<rect x="210" y="714" width="21" height="21" fill="black" />
<rect x="210" y="756" width="21" height="21" fill="black" />
<rect x="252" y="0" width="21" height="21" fill="black" />
<rect x="252" y="42" width="21" height="21" fill="black" />
<rect x="252" y="84" width="21" height="21" fill="black" />
<rect x="252" y="126" width="21" height="21" fill="black" />
<rect x="252" y="168" width="21" height="21" fill="black" />
<rect x="252" y="210" width="21" height="21" fill="black" />
<rect x="252" y="252" width="21" height="21" fill="black" />
<rect x="252" y="294" width="21" height="21" fill="black" />
<rect x="252" y="336" width="21" height="21" fill="black" />
<rect x="252" y="378" width="21" height="21" fill="black" />
<rect x="252" y="420" width="21" height="21" fill="black" />
<rect x="252" y="462" width="21" height="21" fill="black" />
<rect x="252" y="504" width="21" height="21" fill="black" />
<rect x="252" y="546" width="21" height="21" fill="black" />
<rect x="252" y="588" width="21" height="21" fill="black" />
<rect x="252" y="630" width="21" height="21" fill="black" />
<rect x="252" y="672" width="21" height="21" fill="black" />
<rect x="252" y="714" width="21" height="21" fill="black" />
<rect x="252" y="756" width="21" height="21" fill="black" />
<rect x="294" y="0" width="21" height="21" fill="black" />
<rect x="294" y="42" width="21" height="21" fill="black" />
<rect x="294" y="84" width="21" height="21" fill="black" />
<rect x="294" y="126" width="21" height="21" fill="black" />
<rect x="294" y="168" width="21" height="21" fill="black" />
<rect x="294" y="210" width="21" height="21" fill="black" />
<rect x="294" y="252" width="21" height="21" fill="black" />
<rect x="294" y="294" width="21" height="21" fill="black" />
<rect x="294" y="336" width="21" height="21" fill="black" />
<rect x="294" y="378" width="21" height="21" fill="black" />
<rect x="294" y="420" width="21" height="21" fill="black" />
<rect x="294" y="462" width="21" height="21" fill="black" />
<rect x="294" y="504" width="21" height="21" fill="black" />
<rect x="294" y="546" width="21" height="21" fill="black" />
<rect x="294" y="588" width="21" height="21" fill="black" />
<rect x="294" y="630" width="21" height="21" fill="black" />
<rect x="294" y="672" width="21" height="21" fill="black" />
<rect x="294" y="714" width="21" height="21" fill="black" />
<rect x="294" y="756" width="21" height="21" fill="black" />
<rect x="336" y="0" width="21" height="21" fill="black" />
<rect x="336" y="42" width="21" height="21" fill="black" />
<rect x="336" y="84" width="21" height="21" fill="black" />
<rect x="336" y="126" width="21" height="21" fill="black" />
<rect x="336" y="168" width="21" height="21" fill="black" />
<rect x="336" y="210" width="21" height="21" fill="black" />
<rect x="336" y="252" width="21" height="21" fill="black" />
<rect x="336" y="294" width="21" height="21" fill="black" />
<rect x="336" y="336" width="21" height="21" fill="black" />
<rect x="336" y="378" width="21" height="21" fill="black" />
<rect x="336" y="420" width="21" height="21" fill="black" />
<rect x="336" y="462" width="21" height="21" fill="black" />
<rect x="336" y="504" width="21" height="21" fill="black" />
<rect x="336" y="546" width="21" height="21" fill="black" />
<rect x="336" y="588" width="21" height="21" fill="black" />
<rect x="336" y="630" width="21" height="21" fill="black" />
<rect x="336" y="672" width="21" height="21" fill="black" />
<rect x="336" y="714" width="21" height="21" fill="black" />
<rect x="336" y="756" width="21" height="21" fill="black" />
<rect x="378" y="0" width="21" height="21" fill="black" />
<rect x="378" y="42" width="21" height="21" fill="black" />
<rect x="378" y="84" width="21" height="21" fill="black" />
<rect x="378" y="126" width="21" height="21" fill="black" />
<rect x="378" y="168" width="21" height="21" fill="black" />
<rect x="378" y="210" width="21" height="21" fill="black" />
<rect x="378" y="252" width="21" height="21" fill="black" />
<rect x="378" y="294" width="21" height="21" fill="black" />
<rect x="378" y="336" width="21" height="21" fill="black" />
<rect x="378" y="378" width="21" height="21" fill="black" />
<rect x="378" y="420" width="21" height="21" fill="black" />
<rect x="378" y="462" width="21" height="21" fill="black" />
<rect x="378" y="504" width="21" height="21" fill="black" />
<rect x="378" y="546" width="21" height="21" fill="black" />
<rect x="378" y="588" width="21" height="21" fill="black" />
<rect x="378" y="630" width="21" height="21" fill="black" />
<rect x="378" y="672" width="21" height="21" fill="black" />
<rect x="378" y="714" width="21" height="21" fill="black" />
<rect x="378" y="756" width="21" height="21" fill="black" />
<rect x="420" y="0" width="21" height="21" fill="black" />
<rect x="420" y="42" width="21" height="21" fill="black" />
<rect x="420" y="84" width="21" height="21" fill="black" />
<rect x="420" y="126" width="21" height="21" fill="black" />
<rect x="420" y="168" width="21" height="21" fill="black" />
<rect x="420" y="210" width="21" height="21" fill="black" />
<rect x="420" y="252" width="21" height="21" fill="black" />
<rect x="420" y="294" width="21" height="21" fill="black" />
<rect x="420" y="336" width="21" height="21" fill="black" />
<rect x="420" y="378" width="21" height="21" fill="black" />
<rect x="420" y="420" width="21" height="21" fill="black" />
<rect x="420" y="462" width="21" height="21" fill="black" />
<rect x="420" y="504" width="21" height="21" fill="black" />
<rect x="420" y="546" width="21" height="21" fill="black" />
<rect x="420" y="588" width="21" height="21" fill="black" />
<rect x="420" y="630" width="21" height="21" fill="black" />
<rect x="420" y="672" width="21" height="21" fill="black" />
<rect x="420" y="714" width="21" height="21" fill="black" />
<rect x="420" y="756" width="21" height="21" fill="black" />
<rect x="462" y="0" width="21" height="21" fill="black" />
<rect x="462" y="42" width="21" height="21" fill="black" />
<rect x="462" y="84" width="21" height="21" fill="black" />
<rect x="462" y="126" width="21" height="21" fill="black" />
<rect x="462" y="168" width="21" height="21" fill="black" />
<rect x="462" y="210" width="21" height="21" fill="black" />
<rect x="462" y="252" width="21" height="21" fill="black" />
<rect x="462" y="294" width="21" height="21" fill="black" />
<rect x="462" y="336" width="21" height="21" fill="black" />
<rect x="462" y="378" width="21" height="21" fill="black" />
<rect x="462" y="420" width="21" height="21" fill="black" />
<rect x="462" y="462" width="21" height="21" fill="black" />
<rect x="462" y="504" width="21" height="21" fill="black" />
<rect x="462" y="546" width="21" height="21" fill="black" />
<rect x="462" y="588" width="21" height="21" fill="black" />
<rect x="462" y="630" width="21" height="21" fill="black" />
<rect x="462" y="672" width="21" height="21" fill="black" />
<rect x="462" y="714" width="21" height="21" fill="black" />
<rect x="462" y="756" width="21" height="21" fill="black" />
<rect x="504" y="0" width="21" height="21" fill="black" />
<rect x="504" y="42" width="21" height="21" fill="black" />
<rect x="504" y="84" width="21" height="21" fill="black" />
<rect x="504" y="126" width="21" height="21" fill="black" />
<rect x="504" y="168" width="21" height="21" fill="black" />
<rect x="504" y="210" width="21" height="21" fill="black" />
<rect x="504" y="252" width="21" height="21" fill="black" />
<rect x="504" y="294" width="21" height="21" fill="black" />
<rect x="504" y="336" width="21" height="21" fill="black" />
<rect x="504" y="378" width="21" height="21" fill="black" />
<rect x="504" y="420" width="21" height="21" fill="black" />
<rect x="504" y="462" width="21" height="21" fill="black" />
<rect x="504" y="504" width="21" height="21" fill="black" />
<rect x="504" y="546" width="21" height="21" fill="black" />
<rect x="504" y="588" width="21" height="21" fill="black" />
<rect x="504" y="630" width="21" height="21" fill="black" />
<rect x="504" y="672" width="21" height="21" fill="black" />
<rect x="504" y="714" width="21" height="21" fill="black" />
<rect x="504" y="756" width="21" height="21" fill="black" />
<rect x="546" y="0" width="21" height="21" fill="black" />
<rect x="546" y="42" width="21" height="21" fill="black" />
<rect x="546" y="84" width="21" height="21" fill="black" />
<rect x="546" y="126" width="21" height="21" fill="black" />
<rect x="546" y="168" width="21" height="21" fill="black" />
<rect x="546" y="210" width="21" height="21" fill="black" />
<rect x="546" y="252" width="21" height="21" fill="black" />
<rect x="546" y="294" width="21" height="21" fill="black" />
<rect x="546" y="336" width="21" height="21" fill="black" />
<rect x="546" y="378" width="21" height="21" fill="black" />
<rect x="546" y="420" width="21" height="21" fill="black" />
<rect x="546" y="462" width="21" height="21" fill="black" />
<rect x="546" y="504" width="21" height="21" fill="black" />
<rect x="546" y="546" width="21" height="21" fill="black" />
<rect x="546" y="588" width="21" height="21" fill="black" />
<rect x="546" y="630" width="21" height="21" fill="black" />
<rect x="546" y="672" width="21" height="21" fill="black" />
<rect x="546" y="714" width="21" height="21" fill="black" />
<rect x="546" y="756" width="21" height="21" fill="black" />
<rect x="588" y="0" width="21" height="21" fill="black" />
<rect x="588" y="42" width="21" height="21" fill="black" />
<rect x="588" y="84" width="21" height="21" fill="black" />
<rect x="588" y="126" width="21" height="21" fill="black" />
<rect x="588" y="168" width="21" height="21" fill="black" />
<rect x="588" y="210" width="21" height="21" fill="black" />
<rect x="588" y="252" width="21" height="21" fill="black" />
<rect x="588" y="294" width="21" height="21" fill="black" />
<rect x="588" y="336" width="21" height="21" fill="black" />
<rect x="588" y="378" width="21" height="21" fill="black" />
<rect x="588" y="420" width="21" height="21" fill="black" />
<rect x="588" y="462" width="21" height="21" fill="black" />
<rect x="588" y="504" width="21" height="21" fill="black" />
<rect x="588" y="546" width="21" height="21" fill="black" />
<rect x="588" y="588" width="21" height="21" fill="black" />
<rect x="588" y="630" width="21" height="21" fill="black" />
<rect x="588" y="672" width="21" height="21" fill="black" />
<rect x="588" y="714" width="21" height="21" fill="black" />
<rect x="588" y="756" width="21" height="21" fill="black" />
<rect x="630" y="0" width="21" height="21" fill="black" />
<rect x="630" y="42" width="21" height="21" fill="black" />
<rect x="630" y="84" width="21" height="21" fill="black" />
<rect x="630" y="126" width="21" height="21" fill="black" />
<rect x="630" y="168" width="21" height="21" fill="black" />
<rect x="630" y="210" width="21" height="21" fill="black" />
<rect x="630" y="252" width="21" height="21" fill="black" />
<rect x="630" y="294" width="21" height="21" fill="black" />
<rect x="630" y="336" width="21" height="21" fill="black" />
<rect x="630" y="378" width="21" height="21" fill="black" />
<rect x="630" y="420" width="21" height="21" fill="black" />
<rect x="630" y="462" width="21" height="21" fill="black" />
<rect x="630" y="504" width="21" height="21" fill="black" />
<rect x="630" y="546" width="21" height="21" fill="black" />
<rect x="630" y="588" width="21" height="21" fill="black" />
<rect x="630" y="630" width="21" height="21" fill="black" />
<rect x="630" y="672" width="21" height="21" fill="black" />
<rect x="630" y="714" width="21" height="21" fill="black" />
<rect x="630" y="756" width="21" height="21" fill="black" />
<rect x="672" y="0" width="21" height="21" fill="black" />
<rect x="672" y="42" width="21" height="21" fill="black" />
<rect x="672" y="84" width="21" height="21" fill="black" />
<rect x="672" y="126" width="21" height="21" fill="black" />
<rect x="672" y="168" width="21" height="21" fill="black" />
<rect x="672" y="210" width="21" height="21" fill="black" />
<rect x="672" y="252" width="21" height="21" fill="black" />
<rect x="672" y="294" width="21" height="21" fill="black" />
<rect x="672" y="336" width="21" height="21" fill="black" />
<rect x="672" y="378" width="21" height="21" fill="black" />
<rect x="672" y="420" width="21" height="21" fill="black" />
<rect x="672" y="462" width="21" height="21" fill="black" />
<rect x="672" y="504" width="21" height="21" fill="black" />
<rect x="672" y="546" width="21" height="21" fill="black" />
<rect x="672" y="588" width="21" height="21" fill="black" />
<rect x="672" y="630" width="21" height="21" fill="black" />
<rect x="672" y="672" width="21" height="21" fill="black" />
<rect x="672" y="714" width="21" height="21" fill="black" />
<rect x="672" y="756" width="21" height="21" fill="black" />
<rect x="714" y="0" width="21" height="21" fill="black" />
<rect x="714" y="42" width="21" height="21" fill="black" />
<rect x="714" y="84" width="21" height="21" fill="black" />
<rect x="714" y="126" width="21" height="21" fill="black" />
<rect x="714" y="168" width="21" height="21" fill="black" />
<rect x="714" y="210" width="21" height="21" fill="black" />
<rect x="714" y="252" width="21" height="21" fill="black" />
<rect x="714" y="294" width="21" height="21" fill="black" />
<rect x="714" y="336" width="21" height="21" fill="black" />
<rect x="714" y="378" width="21" height="21" fill="black" />
<rect x="714" y="420" width="21" height="21" fill="black" />
<rect x="714" y="462" width="21" height="21" fill="black" />
<rect x="714" y="504" width="21" height="21" fill="black" />
<rect x="714" y="546" width="21" height="21" fill="black" />
<rect x="714" y="588" width="21" height="21" fill="black" />
<rect x="714" y="630" width="21" height="21" fill="black" />
<rect x="714" y="672" width="21" height="21" fill="black" />
<rect x="714" y="714" width="21" height="21" fill="black" />
<rect x="714" y="756" width="21" height="21" fill="black" />
<rect x="756" y="0" width="21" height="21" fill="black" />
<rect x="756" y="42" width="21" height="21" fill="black" />
<rect x="756" y="84" width="21" height="21" fill="black" />
<rect x="756" y="126" width="21" height="21" fill="black" />
<rect x="756" y="168" width="21" height="21" fill="black" />
<rect x="756" y="210" width="21" height="21" fill="black" />
<rect x="756" y="252" width="21" height="21" fill="black" />
<rect x="756" y="294" width="21" height="21" fill="black" />
<rect x="756" y="336" width="21" height="21" fill="black" />
<rect x="756" y="378" width="21" height="21" fill="black" />
<rect x="756" y="420" width="21" height="21" fill="black" />
<rect x="756" y="462" width="21" height="21" fill="black" />
<rect x="756" y="504" width="21" height="21" fill="black" />
<rect x="756" y="546" width="21" height="21" fill="black" />
<rect x="756" y="588" width="21" height="21" fill="black" />
<rect x="756" y="630" width="21" height="21" fill="black" />
<rect x="756" y="672" width="21" height="21" fill="black" />
<rect x="756" y="714" width="21" height="21" fill="black" />
<rect x="756" y="756" width="21" height="21" fill="black" />
<rect x="0" y="21" width="21" height="21" fill="black" />
<rect x="0" y="63" width="21" height="21" fill="black" />
<rect x="0" y="105" width="21" height="21" fill="black" />
<rect x="126" y="21" width="21" height="21" fill="black" />
<rect x="126" y="63" width="21" height="21" fill="black" />
<rect x="126" y="105" width="21" height="21" fill="black" />
<rect x="21" y="0" width="21" height="21" fill="black" />
<rect x="63" y="0" width="21" height="21" fill="black" />
<rect x="105" y="0" width="21" height="21" fill="black" />
<rect x="21" y="126" width="21" height="21" fill="black" />
<rect x="63" y="126" width="21" height="21" fill="black" />
<rect x="105" y="126" width="21" height="21" fill="black" />
<rect x="63" y="42" width="21" height="21" fill="black" />
<rect x="63" y="63" width="21" height="21" fill="black" />
<rect x="63" y="84" width="21" height="21" fill="black" />
<rect x="42" y="63" width="21" height="21" fill="black" />
<rect x="84" y="63" width="21" height="21" fill="black" />
<rect x="630" y="21" width="21" height="21" fill="black" />
<rect x="630" y="63" width="21" height="21" fill="black" />
<rect x="630" y="105" width="21" height="21" fill="black" />
<rect x="756" y="21" width="21" height="21" fill="black" />
<rect x="756" y="63" width="21" height="21" fill="black" />
<rect x="756" y="105" width="21" height="21" fill="black" />
<rect x="651" y="0" width="21" height="21" fill="black" />
<rect x="693" y="0" width="21" height="21" fill="black" />
<rect x="735" y="0" width="21" height="21" fill="black" />
<rect x="651" y="126" width="21" height="21" fill="black" />
<rect x="693" y="126" width="21" height="21" fill="black" />
<rect x="735" y="126" width="21" height="21" fill="black" />
<rect x="693" y="42" width="21" height="21" fill="black" />
<rect x="693" y="63" width="21" height="21" fill="black" />
<rect x="693" y="84" width="21" height="21" fill="black" />
<rect x="672" y="63" width="21" height="21" fill="black" />
<rect x="714" y="63" width="21" height="21" fill="black" />
<rect x="0" y="651" width="21" height="21" fill="black" />
<rect x="0" y="693" width="21" height="21" fill="black" />
<rect x="0" y="735" width="21" height="21" fill="black" />
<rect x="126" y="651" width="21" height="21" fill="black" />
<rect x="126" y="693" width="21" height="21" fill="black" />
<rect x="126" y="735" width="21" height="21" fill="black" />
<rect x="21" y="630" width="21" height="21" fill="black" />
<rect x="63" y="630" width="21" height="21" fill="black" />
<rect x="105" y="630" width="21" height="21" fill="black" />
<rect x="21" y="756" width="21" height="21" fill="black" />
<rect x="63" y="756" width="21" height="21" fill="black" />
<rect x="105" y="756" width="21" height="21" fill="black" />
<rect x="63" y="672" width="21" height="21" fill="black" />
<rect x="63" y="693" width="21" height="21" fill="black" />
<rect x="63" y="714" width="21" height="21" fill="black" />
<rect x="42" y="693" width="21" height="21" fill="black" />
<rect x="84" y="693" width="21" height="21" fill="black" />
</svg>
